<svg width="11" height="14" viewBox="0 0 11 14" fill="none" xmlns="http://www.w3.org/2000/svg">
<path d="M0.417166 0.676819C0.175649 0.676819 0 0.809427 0 0.991762V13.6392C0 13.8216 0.175649 13.9542 0.417166 13.9542H10.5828C10.8244 13.9542 11 13.8216 11 13.6392V0.991762C11 0.809427 10.8244 0.676819 10.5828 0.676819L0.417166 0.676819ZM2.19561 2.33442H8.78243V10.6224H2.19561V2.33442ZM5.48902 11.4512C6.10379 11.4512 6.58683 11.8159 6.58683 12.28C6.58683 12.7441 6.10379 13.1088 5.48902 13.1088C4.87425 13.1088 4.39122 12.7441 4.39122 12.28C4.39122 11.8159 4.87425 11.4512 5.48902 11.4512Z" fill="white"/>
</svg>
