<svg width="13" height="13" viewBox="0 0 13 13" fill="none" xmlns="http://www.w3.org/2000/svg">
<path d="M11.9997 9.67272V11.4586C12.0003 11.6244 11.9687 11.7885 11.907 11.9404C11.8453 12.0923 11.7548 12.2287 11.6413 12.3407C11.5278 12.4528 11.3938 12.5381 11.2479 12.5913C11.102 12.6444 10.9474 12.6641 10.794 12.6492C9.09204 12.4501 7.45724 11.8242 6.0209 10.8216C4.68457 9.90766 3.55159 8.68821 2.70244 7.24988C1.76772 5.69688 1.18603 3.92874 1.00449 2.08869C0.990668 1.92407 1.00884 1.75816 1.05786 1.60152C1.10688 1.44487 1.18566 1.30093 1.28919 1.17886C1.39273 1.05678 1.51874 0.959246 1.65922 0.892462C1.79969 0.825677 1.95155 0.791107 2.10511 0.790951H3.76434C4.03276 0.788108 4.29297 0.890412 4.49649 1.07879C4.7 1.26718 4.83293 1.52878 4.8705 1.81485C4.94053 2.38637 5.07041 2.94753 5.25765 3.48763C5.33206 3.7007 5.34817 3.93226 5.30406 4.15488C5.25995 4.3775 5.15747 4.58184 5.00877 4.74369L4.30636 5.49972C5.09369 6.99006 6.24017 8.22404 7.62482 9.07147L8.32723 8.31545C8.4776 8.1554 8.66746 8.0451 8.87429 7.99762C9.08112 7.95014 9.29626 7.96747 9.49422 8.04757C9.99601 8.2491 10.5174 8.3889 11.0484 8.46427C11.317 8.50507 11.5624 8.65072 11.7378 8.87353C11.9132 9.09634 12.0064 9.38077 11.9997 9.67272Z" fill="white" stroke="black" stroke-width="0.5" stroke-linecap="round" stroke-linejoin="round"/>
</svg>
